<svg width="56" height="56" viewBox="0 0 56 56" fill="none" xmlns="http://www.w3.org/2000/svg">
<rect x="-1" y="1" width="54" height="54" rx="27" transform="matrix(-1 0 0 1 54 0)" stroke="#959EAD" stroke-width="2"/>
<path d="M26.9688 34.9375C26.6562 34.625 26.6875 34.1562 26.9688 33.8438L30.75 30.25H21.75C21.3438 30.25 21 29.9375 21 29.5V28.5C21 28.0938 21.3438 27.75 21.75 27.75H30.75L26.9688 24.1875C26.6875 23.875 26.6562 23.4062 26.9688 23.0938L27.6562 22.4062C27.9375 22.125 28.4375 22.125 28.7188 22.4062L34.7812 28.5C35.0938 28.7812 35.0938 29.25 34.7812 29.5312L28.7188 35.625C28.4375 35.9062 27.9688 35.9062 27.6562 35.625L26.9688 34.9375Z" fill="#959EAD"/>
</svg>
